#!OML:ASF H:\BreakDance\Project 1\Capture day 1\Session 1\Male.ASF
:FULLY-SPECIFIED
:DEGREES
869
root -8.95566 18.4125 0.0616912 -158.488 -80.1304 342.602
lowerback -3.99677 -0.691997 -1.85434
upperback -5.91672 -0.941934 -3.31376
thorax -3.89588 -0.446828 -2.39357
lowerneck -23.6112 -0.988047 -2.22589
upperneck -24.523 -0.937314 2.9707
head -3.97898 -1.12434 1.35711
rclavicle -3.45885e-014 5.56597e-015
rhumerus 74.5239 -48.1788 -41.0671
rradius 47.9761
rwrist -16.9625
rhand -53.7891 -66.4994
rfingers 7.12502
rthumb -26.2214 94.7079
lclavicle -3.45885e-014 5.56597e-015
lhumerus 86.0458 44.6164 43.9069
lradius 40.3568
lwrist 8.03524
lhand -59.0942 453.821
lfingers 7.12502
lthumb -31.2891 -66.4749
rfemur -0.628566 -7.4725 19.935
rtibia 39.7161
rfoot -0.219572 8.68533
rtoes -3.30854
lfemur -33.5627 -4.25896 -17.331
ltibia 49.1408
lfoot -22.573 -0.911546
ltoes -41.7489
870
root -8.99173 18.5433 0.0492892 -159.054 -79.1156 343.196
lowerback -3.53417 -0.705703 -2.52946
upperback -5.81473 -0.969744 -3.205
thorax -4.03795 -0.431725 -1.89748
lowerneck -23.3172 -0.864658 -2.48606
upperneck -24.9108 -0.565281 3.54289
head -4.14145 -0.926415 1.60536
rclavicle 1.72843e-013 -2.22639e-014
rhumerus 76.389 -48.0005 -42.6719
rradius 47.0175
rwrist -16.9512
rhand -53.6825 -66.0378
rfingers 7.12502
rthumb -26.1193 94.2615
lclavicle 1.72843e-013 -2.22639e-014
lhumerus 87.759 45.0147 45.305
lradius 40.0899
lwrist 7.82078
lhand -58.9504 452.762
lfingers 7.12502
lthumb -31.1521 -65.3895
rfemur -4.46742 -6.99835 20.297
rtibia 42.2261
rfoot -1.21879 8.36094
rtoes -3.91071
lfemur -31.9117 -4.18494 -17.5744
ltibia 49.745
lfoot -23.3436 -1.0045
ltoes -41.7277
871
root -9.02412 18.6637 0.0370308 -159.688 -78.0669 343.823
lowerback -3.11602 -0.716073 -3.16706
upperback -5.74963 -0.997446 -3.08284
thorax -4.19483 -0.416639 -1.40993
lowerneck -22.9591 -0.739513 -2.74399
upperneck -25.2541 -0.201725 4.0462
head -4.30052 -0.729218 1.82946
rclavicle 5.26779e-014 7.15625e-015
rhumerus 78.1111 -47.6369 -44.177
rradius 46.128
rwrist -16.9772
rhand -53.504 -65.2985
rfingers 7.12502
rthumb -25.9485 93.5473
lclavicle 5.26779e-014 7.15625e-015
lhumerus 88.7173 45.2795 46.0482
lradius 40.2499
lwrist 8.15565
lhand -58.9584 451.951
lfingers 7.12502
lthumb -31.1597 -64.5804
rfemur -8.05806 -6.17899 20.7177
rtibia 44.417
rfoot -1.94012 7.66161
rtoes -4.79184
lfemur -30.1058 -4.02113 -17.84
ltibia 50.2259
lfoot -24.0566 -0.846457
ltoes -41.7691
872
root -9.05141 18.7729 0.0247456 -160.06 -77.0194 344.127
lowerback -2.75521 -0.731265 -3.79643
upperback -5.70605 -1.0337 -2.9827
thorax -4.34322 -0.405326 -0.951013
lowerneck -22.5492 -0.606178 -2.92478
upperneck -25.5434 0.12821 4.398
head -4.45143 -0.549591 1.98837
rclavicle 1.83478e-013 3.65764e-014
rhumerus 79.577 -47.1313 -45.4729
rradius 45.3351
rwrist -17.0481
rhand -53.2907 -64.2709
rfingers 7.12502
rthumb -25.7442 92.5495
lclavicle 1.83478e-013 3.65764e-014
lhumerus 88.7818 45.4101 46.0084
lradius 40.896
lwrist 9.14206
lhand -59.1546 451.549
lfingers 7.12502
lthumb -31.3466 -64.214
rfemur -11.4261 -5.32243 21.027
rtibia 46.3314
rfoot -2.27615 6.91234
rtoes -5.49358
lfemur -28.0978 -3.78356 -18.2038
ltibia 50.5455
lfoot -24.7051 -0.486451
ltoes -41.5593
873
root -9.07235 18.8695 0.012298 -160.068 -76.0113 343.993
lowerback -2.46848 -0.751811 -4.41434
upperback -5.67955 -1.07785 -2.93623
thorax -4.46925 -0.398621 -0.555244
lowerneck -22.0722 -0.46203 -2.99601
upperneck -25.792 0.415667 4.57361
head -4.59945 -0.394197 2.06799
rclavicle -1.17681e-013 -7.95139e-015
rhumerus 80.6581 -46.54 -46.4343
rradius 44.6606
rwrist -17.1776
rhand -53.0783 -62.9677
rfingers 7.12502
rthumb -25.5408 91.2756
lclavicle -1.17681e-013 -7.95139e-015
lhumerus 87.9596 45.3522 45.223
lradius 42.0329
lwrist 10.7027
lhand -59.4766 451.661
lfingers 7.12502
lthumb -31.6534 -64.3863
rfemur -14.5908 -4.62283 21.1577
rtibia 47.9707
rfoot -2.21598 6.33166
rtoes -5.78553
lfemur -25.8496 -3.47794 -18.6975
ltibia 50.6421
lfoot -25.284 -0.0378619
ltoes -40.8482
874
root -9.08576 18.95 -0.000517496 -159.802 -75.0885 343.522
lowerback -2.29389 -0.780368 -4.97251
upperback -5.65334 -1.12846 -2.95825
thorax -4.53404 -0.399266 -0.265114
lowerneck -21.5448 -0.306574 -2.96637
upperneck -26.0137 0.668739 4.596
head -4.7462 -0.259 2.07752
rclavicle -2.47686e-013 -1.11319e-014
rhumerus 81.2886 -45.9367 -46.995
rradius 44.1307
rwrist -17.3882
rhand -52.8646 -61.437
rfingers 7.12502
rthumb -25.3361 270.226
lclavicle -2.47686e-013 -1.11319e-014
lhumerus 86.4434 45.0502 43.9229
lradius 43.5963
lwrist 12.5389
lhand -59.8002 452.233
lfingers 7.12502
lthumb -31.9616 -65.019
rfemur -17.5593 -4.17936 21.1355
rtibia 49.2944
rfoot -1.82103 6.02228
rtoes -5.30232
lfemur -23.3292 -3.1119 -19.2881
ltibia 50.4343
lfoot -25.7881 0.400979
ltoes -39.909
875
root -9.09071 19.0071 -0.0144799 -159.386 -74.296 342.865
lowerback -2.24975 -0.819796 -5.42844
upperback -5.61479 -1.18419 -3.04299
thorax -4.51386 -0.409457 -0.0984654
lowerneck -21.0233 -0.148791 -2.87112
upperneck -26.2137 0.892591 4.51993
head -4.8855 -0.140926 2.04136
rclavicle -1.11021e-013 -1.35174e-014
rhumerus 81.4374 -45.392 -47.1153
rradius 43.7762
rwrist -17.7046
rhand -52.6363 -59.764
rfingers 7.12502
rthumb -25.1173 271.868
lclavicle -1.11021e-013 -1.35174e-014
lhumerus 84.5368 44.4643 42.4415
lradius 45.4305
lwrist 14.2183
lhand -59.9786 453.099
lfingers 7.12502
lthumb -32.1315 -65.92
rfemur -20.3218 -3.9853 21.032
rtibia 50.2477
rfoot -1.28841 5.95176
rtoes -4.61171
lfemur -20.5123 -2.69896 -19.9101
ltibia 49.8455
lfoot -26.2238 0.71344
ltoes -38.9429
